<svg xmlns:dc="http://purl.org/dc/elements/1.1/" xmlns:cc="http://creativecommons.org/ns#" xmlns:rdf="http://www.w3.org/1999/02/22-rdf-syntax-ns#" xmlns:svg="http://www.w3.org/2000/svg" xmlns="http://www.w3.org/2000/svg" xmlns:sodipodi="http://sodipodi.sourceforge.net/DTD/sodipodi-0.dtd" xmlns:inkscape="http://www.inkscape.org/namespaces/inkscape" version="1.1" viewBox="0 0 8.4666664 10.583334" x="0px" y="0px"><g transform="translate(0,761.3334)"><path d="m 4.2343664,-760.80423 c -2.04262,0 -3.7052,1.66206 -3.7052,3.70468 0,2.04262 1.66258,3.70365 3.7052,3.70365 2.04262,0 3.703134,-1.66103 3.703134,-3.70365 0,-2.04262 -1.660514,-3.70468 -3.703134,-3.70468 z m 0,0.52917 c 1.75664,0 3.173968,1.41888 3.173968,3.17551 0,1.75664 -1.417328,3.17397 -3.173968,3.17397 -1.756638,0 -3.175515,-1.41733 -3.175516,-3.17397 10e-7,-1.75663 1.418878,-3.17551 3.175516,-3.17551 z m -5.29e-4,1.05833 c -0.720316,0 -1.322917,0.59121 -1.322917,1.33118 h 0.529167 c 0,-0.42435 0.345108,-0.77669 0.79375,-0.77669 0.448644,0 0.79375,0.35234 0.79375,0.77669 0,0.42437 -0.345106,0.77722 -0.79375,0.77722 a 0.26459948,0.2774238 0 0 0 -0.264583,0.27698 v 1.0542 h 0.529167 v -0.80357 c 0.597408,-0.12372 1.058333,-0.6577 1.058333,-1.30483 0,-0.73997 -0.602601,-1.33118 -1.322917,-1.33118 z m -0.264583,3.70417 v 0.52916 h 0.529167 v -0.52916 z" style="color:#000000;font-style:normal;font-variant:normal;font-weight:normal;font-stretch:normal;font-size:medium;line-height:normal;font-family:sans-serif;font-variant-ligatures:normal;font-variant-position:normal;font-variant-caps:normal;font-variant-numeric:normal;font-variant-alternates:normal;font-variant-east-asian:normal;font-feature-settings:normal;font-variation-settings:normal;text-indent:0;text-align:start;text-decoration:none;text-decoration-line:none;text-decoration-style:solid;text-decoration-color:#000000;letter-spacing:normal;word-spacing:normal;text-transform:none;writing-mode:lr-tb;direction:ltr;text-orientation:mixed;dominant-baseline:auto;baseline-shift:baseline;text-anchor:start;white-space:normal;shape-padding:0;shape-margin:0;inline-size:0;clip-rule:nonzero;display:inline;overflow:visible;visibility:visible;opacity:1;isolation:auto;mix-blend-mode:normal;color-interpolation:sRGB;color-interpolation-filters:linearRGB;solid-color:#000000;solid-opacity:1;vector-effect:none;fill:#000000;fill-opacity:1;fill-rule:nonzero;stroke:none;stroke-width:0.529167;stroke-linecap:butt;stroke-linejoin:round;stroke-miterlimit:4;stroke-dasharray:none;stroke-dashoffset:0;stroke-opacity:1;paint-order:fill markers stroke;color-rendering:auto;image-rendering:auto;shape-rendering:auto;text-rendering:auto;enable-background:accumulate;stop-color:#000000;stop-opacity:1"/></g></svg>